<svg width="32" height="28" viewBox="0 0 32 28" fill="none" xmlns="http://www.w3.org/2000/svg">
<path d="M30.2222 8.42343L19.5556 1.06823C18.5778 0.380313 17.3119 0 16.0001 0C14.6882 0 13.4223 0.380313 12.4445 1.06823L1.77793 8.42343C1.21326 8.82065 0.762652 9.30795 0.456115 9.85286C0.149579 10.3978 -0.0058534 10.9878 0.000168522 11.5836V23.805C0.000168522 24.9176 0.562068 25.9846 1.56225 26.7713C2.56244 27.558 3.91899 28 5.33346 28H26.6666C28.0811 28 29.4377 27.558 30.4379 26.7713C31.438 25.9846 31.9999 24.9176 31.9999 23.805V11.5697C32.0034 10.9762 31.8468 10.3888 31.5403 9.84648C31.2339 9.30412 30.7846 8.81909 30.2222 8.42343ZM19.5556 25.2033H12.4445V18.2117C12.4445 17.8409 12.6318 17.4852 12.9652 17.2229C13.2986 16.9607 13.7508 16.8134 14.2223 16.8134H17.7778C18.2493 16.8134 18.7015 16.9607 19.0349 17.2229C19.3683 17.4852 19.5556 17.8409 19.5556 18.2117V25.2033ZM28.4444 23.805C28.4444 24.1759 28.2571 24.5315 27.9237 24.7938C27.5903 25.056 27.1381 25.2033 26.6666 25.2033H23.1111V18.2117C23.1111 17.0991 22.5492 16.0321 21.549 15.2454C20.5488 14.4587 19.1923 14.0167 17.7778 14.0167H14.2223C12.8078 14.0167 11.4513 14.4587 10.4511 15.2454C9.45089 16.0321 8.88899 17.0991 8.88899 18.2117V25.2033H5.33346C4.86197 25.2033 4.40979 25.056 4.0764 24.7938C3.743 24.5315 3.5557 24.1759 3.5557 23.805V11.5697C3.55602 11.3711 3.61009 11.1749 3.71431 10.9941C3.81853 10.8133 3.97051 10.652 4.16014 10.5209L14.8267 3.1797C15.1512 2.95552 15.5682 2.83189 16.0001 2.83189C16.4319 2.83189 16.849 2.95552 17.1734 3.1797L27.84 10.5209C28.0296 10.652 28.1816 10.8133 28.2858 10.9941C28.39 11.1749 28.4441 11.3711 28.4444 11.5697V23.805Z" fill="#72747C" style="fill:#72747C;fill:color(display-p3 0.4471 0.4549 0.4863);fill-opacity:1;"/>
</svg>
