<svg width="15" height="15" viewBox="0 0 15 15" fill="none" xmlns="http://www.w3.org/2000/svg">
<path d="M13.9286 0H1.07143C0.787268 0 0.514746 0.0790165 0.313814 0.219667C0.112883 0.360317 2.31998e-09 0.55108 2.31998e-09 0.74999V14.2498C-1.34736e-05 14.3932 0.0586808 14.5335 0.169129 14.6543C0.279578 14.775 0.437153 14.8711 0.623186 14.9311C0.809219 14.991 1.01592 15.0124 1.21879 14.9927C1.42166 14.973 1.61221 14.913 1.76786 14.8198L7.5 11.4523L13.1679 14.7823C13.268 14.8518 13.3867 14.9068 13.5172 14.9441C13.6478 14.9814 13.7876 15.0004 13.9286 14.9998C14.0691 15.0023 14.2086 14.9818 14.3357 14.9398C14.5314 14.8835 14.6989 14.788 14.8171 14.6652C14.9353 14.5424 14.9989 14.3979 15 14.2498V7.4999V0.74999C15 0.55108 14.8871 0.360317 14.6862 0.219667C14.4853 0.0790165 14.2127 0 13.9286 0ZM12.8571 12.6448L8.18571 9.89986C7.99319 9.78761 7.75056 9.72615 7.5 9.72615C7.24944 9.72615 7.00681 9.78761 6.81429 9.89986L2.14286 12.6448V1.49998H12.8571V12.6448Z" fill="#F6C944" style="fill:#F6C944;fill:color(display-p3 0.9647 0.7882 0.2667);fill-opacity:1;"/>
</svg>
