<svg width="24" height="23" viewBox="0 0 24 23" fill="none" xmlns="http://www.w3.org/2000/svg">
<path d="M16.4561 12.3157C17.6384 11.4292 18.5013 10.2135 18.9249 8.83776C19.3485 7.46203 19.3116 5.99467 18.8195 4.63983C18.3273 3.285 17.4043 2.11005 16.1788 1.27847C14.9534 0.446879 13.4864 0 11.9821 0C10.4778 0 9.01085 0.446879 7.78541 1.27847C6.55997 2.11005 5.63695 3.285 5.14477 4.63983C4.6526 5.99467 4.61573 7.46203 5.03931 8.83776C5.46289 10.2135 6.32585 11.4292 7.50813 12.3157C5.48227 13.0893 3.71464 14.3723 2.39367 16.028C1.07271 17.6837 0.247932 19.65 0.00727395 21.7173C-0.0101461 21.8682 0.00379671 22.021 0.0483061 22.1668C0.0928155 22.3126 0.16702 22.4486 0.266682 22.567C0.46796 22.8063 0.760716 22.9595 1.08055 22.9931C1.40038 23.0266 1.72109 22.9377 1.97212 22.7458C2.22315 22.554 2.38394 22.275 2.41913 21.9702C2.68393 19.7234 3.80797 17.6484 5.5765 16.1416C7.34503 14.6348 9.63406 13.8018 12.0062 13.8018C14.3784 13.8018 16.6674 14.6348 18.436 16.1416C20.2045 17.6484 21.3285 19.7234 21.5933 21.9702C21.6261 22.2526 21.7675 22.5134 21.9902 22.7023C22.2129 22.8912 22.5011 22.9948 22.7993 22.9931H22.9319C23.248 22.9584 23.537 22.8061 23.7357 22.5692C23.9345 22.3324 24.027 22.0303 23.9931 21.7288C23.7513 19.6556 22.9221 17.6843 21.5944 16.026C20.2666 14.3678 18.4904 13.0852 16.4561 12.3157ZM11.9821 11.4997C11.0281 11.4997 10.0955 11.2301 9.30221 10.7249C8.50896 10.2197 7.89069 9.50173 7.52559 8.66167C7.1605 7.82162 7.06497 6.89724 7.2511 6.00544C7.43722 5.11364 7.89663 4.29447 8.57124 3.65152C9.24585 3.00857 10.1054 2.57072 11.0411 2.39333C11.9768 2.21594 12.9466 2.30698 13.8281 2.65494C14.7095 3.00291 15.4628 3.59216 15.9929 4.34819C16.5229 5.10422 16.8058 5.99307 16.8058 6.90234C16.8058 8.12163 16.2976 9.29099 15.393 10.1532C14.4884 11.0153 13.2614 11.4997 11.9821 11.4997Z" fill="white" style="fill:white;fill-opacity:1;"/>
</svg>
