<svg width="26" height="24" viewBox="0 0 26 24" fill="none" xmlns="http://www.w3.org/2000/svg">
<path d="M24.8193 17.7841L22.1117 15.234C21.5292 14.7248 20.7946 14.3875 20.0021 14.2653C19.2095 14.1431 18.3954 14.2417 17.6643 14.5483L16.487 13.4657C17.8743 11.7611 18.5078 9.63645 18.2602 7.51953C18.0125 5.4026 16.9019 3.45056 15.1521 2.05636C13.4022 0.662156 11.143 -0.070678 8.82928 0.00537894C6.5155 0.0814359 4.31897 0.960736 2.68184 2.46627C1.04471 3.9718 0.0885539 5.99178 0.00584909 8.11957C-0.0768557 10.2474 0.720032 12.325 2.23609 13.9341C3.75216 15.5433 5.87482 16.5646 8.17678 16.7924C10.4787 17.0202 12.7891 16.4375 14.6427 15.1618L15.8069 16.2324C15.4342 16.9056 15.3006 17.6693 15.425 18.416C15.5494 19.1627 15.9254 19.8547 16.5001 20.3944L19.2732 22.9446C20.009 23.6204 21.0064 24 22.0463 24C23.0862 24 24.0835 23.6204 24.8193 22.9446C25.1931 22.6085 25.4901 22.2072 25.6928 21.7641C25.8956 21.321 26 20.8451 26 20.3644C26 19.8837 25.8956 19.4078 25.6928 18.9647C25.4901 18.5216 25.1931 18.1202 24.8193 17.7841ZM13.7271 12.6838C12.8117 13.5234 11.6463 14.0948 10.3781 14.3256C9.10987 14.5564 7.79569 14.4364 6.60158 13.9808C5.40747 13.5251 4.387 12.7542 3.66908 11.7654C2.95116 10.7767 2.568 9.61443 2.568 8.42551C2.568 7.2366 2.95116 6.07435 3.66908 5.08559C4.387 4.09684 5.40747 3.32593 6.60158 2.87026C7.79569 2.41459 9.10987 2.29459 10.3781 2.52543C11.6463 2.75627 12.8117 3.32759 13.7271 4.16722C14.3361 4.72592 14.8194 5.38963 15.1491 6.12034C15.4788 6.85105 15.6485 7.63439 15.6485 8.42551C15.6485 9.21663 15.4788 9.99998 15.1491 10.7307C14.8194 11.4614 14.3361 12.1251 13.7271 12.6838ZM22.975 21.1884C22.8534 21.3011 22.7087 21.3906 22.5493 21.4517C22.3899 21.5127 22.2189 21.5442 22.0463 21.5442C21.8736 21.5442 21.7026 21.5127 21.5432 21.4517C21.3838 21.3906 21.2391 21.3011 21.1175 21.1884L18.3445 18.6382C18.2219 18.5264 18.1246 18.3933 18.0582 18.2468C17.9917 18.1002 17.9576 17.9429 17.9576 17.7841C17.9576 17.6253 17.9917 17.4681 18.0582 17.3215C18.1246 17.1749 18.2219 17.0419 18.3445 16.9301C18.4661 16.8173 18.6107 16.7278 18.7701 16.6668C18.9295 16.6057 19.1005 16.5743 19.2732 16.5743C19.4459 16.5743 19.6168 16.6057 19.7762 16.6668C19.9356 16.7278 20.0803 16.8173 20.2019 16.9301L22.975 19.4802C23.0976 19.5921 23.1949 19.7251 23.2613 19.8717C23.3277 20.0183 23.3619 20.1755 23.3619 20.3343C23.3619 20.4931 23.3277 20.6503 23.2613 20.7969C23.1949 20.9435 23.0976 21.0765 22.975 21.1884Z" fill="white" style="fill:white;fill-opacity:1;"/>
</svg>
